<svg xmlns="http://www.w3.org/2000/svg" xmlns:xlink="http://www.w3.org/1999/xlink" width="64" height="64" viewBox="0 0 64 64">
  <defs>
    <clipPath id="clip-path">
      <rect id="Rectangle_2742" data-name="Rectangle 2742" width="64" height="64" fill="none"/>
    </clipPath>
  </defs>
  <g id="Group_16176" data-name="Group 16176" transform="translate(0)">
    <g id="Group_16175" data-name="Group 16175" transform="translate(0)" clip-path="url(#clip-path)">
      <path id="Path_11420" data-name="Path 11420" d="M32,64A32,32,0,0,1,9.372,9.373,32,32,0,0,1,54.627,54.627,31.79,31.79,0,0,1,32,64M32,3.945A28.055,28.055,0,0,0,12.162,51.838,28.055,28.055,0,0,0,51.838,12.162,27.872,27.872,0,0,0,32,3.945" fill="#0061e5"/>
      <path id="Path_11421" data-name="Path 11421" d="M155.669,180.848c-2.446-2.269-7.349-6.727-11.795-10.218a.552.552,0,0,1,0-.869c4.458-3.5,9.353-7.95,11.8-10.216a.553.553,0,0,1,.927.353,143.056,143.056,0,0,1,0,20.6.553.553,0,0,1-.927.353m-.736-22.129a166.266,166.266,0,0,1-14.97,12.577.553.553,0,0,1-.632,0,166.27,166.27,0,0,1-14.97-12.577.553.553,0,0,1,.3-.953,121.377,121.377,0,0,1,14.989-.722,121.377,121.377,0,0,1,14.989.722.553.553,0,0,1,.3.953M122.7,180.495a143.056,143.056,0,0,1,0-20.6.553.553,0,0,1,.927-.353c2.443,2.266,7.338,6.715,11.8,10.216a.552.552,0,0,1,0,.869c-4.446,3.49-9.349,7.948-11.795,10.217a.553.553,0,0,1-.927-.353m1.662,1.18c2.509-2.328,7.654-7.006,12.194-10.526a.554.554,0,0,1,.67-.007c.734.545,1.444,1.051,2.114,1.5a.553.553,0,0,0,.615,0c.67-.449,1.38-.954,2.115-1.5a.554.554,0,0,1,.67.007c4.54,3.52,9.685,8.2,12.194,10.527a.553.553,0,0,1-.3.953,121.358,121.358,0,0,1-14.989.722,121.353,121.353,0,0,1-14.989-.722.553.553,0,0,1-.3-.953" transform="translate(-107.648 -138.197)" fill="#1f283d"/>
    </g>
  </g>
</svg>
