<svg id="Group_16166" data-name="Group 16166" xmlns="http://www.w3.org/2000/svg" xmlns:xlink="http://www.w3.org/1999/xlink" width="134.688" height="134.889" viewBox="0 0 134.688 134.889">
  <defs>
    <clipPath id="clip-path">
      <rect id="Rectangle_2740" data-name="Rectangle 2740" width="134.688" height="134.889" fill="#fff"/>
    </clipPath>
  </defs>
  <g id="Group_16159" data-name="Group 16159" clip-path="url(#clip-path)">
    <path id="Path_11269" data-name="Path 11269" d="M132.953,156.658h-21.5A13.7,13.7,0,0,0,98.615,147.7H90.706a13.7,13.7,0,0,0-12.823,8.917H56.845A13.7,13.7,0,0,0,44.022,147.7H36.113a13.7,13.7,0,0,0-12.839,8.958H1.735A1.722,1.722,0,0,0,0,158.393v7.061a1.722,1.722,0,0,0,1.735,1.735H4.358v54.069a1.722,1.722,0,0,0,1.735,1.735h7.142a1.7,1.7,0,0,0,1.735-1.735V167.189h7.465v13.638H18.278a1.722,1.722,0,0,0-1.735,1.735v13.6a1.722,1.722,0,0,0,1.735,1.735h7.148l.64,23.4a1.714,1.714,0,0,0,1.735,1.695h5.044A1.739,1.739,0,0,0,34.58,221.3l.64-23.4h9.656l.64,23.4a1.714,1.714,0,0,0,1.735,1.695h5.044a1.689,1.689,0,0,0,1.735-1.695l.64-23.4h7.148a1.714,1.714,0,0,0,1.735-1.695V182.6a1.722,1.722,0,0,0-1.735-1.735H57.7V167.189H77.028v13.638H72.872a1.722,1.722,0,0,0-1.735,1.735v13.6a1.722,1.722,0,0,0,1.735,1.735H80.02l.64,23.4a1.714,1.714,0,0,0,1.735,1.695h5.044a1.689,1.689,0,0,0,1.735-1.695l.64-23.4h9.7l.64,23.4a1.714,1.714,0,0,0,1.735,1.695h5.044a1.713,1.713,0,0,0,1.735-1.695l.64-23.4h1.217l.02,0,.02,0h5.891a1.74,1.74,0,0,0,1.735-1.695V182.6a1.722,1.722,0,0,0-1.735-1.735h-4.156V167.189h7.424v54.069a1.722,1.722,0,0,0,1.735,1.735h7.142a1.7,1.7,0,0,0,1.735-1.735V167.189h2.623a1.722,1.722,0,0,0,1.735-1.735v-7.061a1.722,1.722,0,0,0-1.735-1.735M80.538,194.385V184.2c11.751-.373,24.366-.576,28.245-.28v10.464ZM90.706,151.21h7.909a10.183,10.183,0,0,1,9.844,7.617s0,.006,0,.009v.04l.036.106c.015.06.028.121.042.182s.031.134.045.2a10.172,10.172,0,0,1,.187,1.482c.008.177.014.353.014.53v19.062c-2.249-.159-6.443-.2-14.566-.058-5.469.115-10.935.27-13.679.35V165.68a2.041,2.041,0,0,0,.04-.307v-4.842a8004.472,8004.472,0,0,0,.081-.484v-.04a.439.439,0,0,0,.04-.2v-.04a1.747,1.747,0,0,0,.04-.2v-.04c0-.081.04-.121.04-.2v-.04c0-.081.04-.121.04-.2v-.04c0-.081.04-.121.04-.2v0a10.183,10.183,0,0,1,9.845-7.622M25.9,194.385V184.2c11.722-.373,24.314-.576,28.245-.285v10.467ZM36.073,151.21h7.909a10.177,10.177,0,0,1,10.168,10.168v19.06c-2.259-.157-6.451-.194-14.526-.055-5.5.115-10.988.271-13.719.351V161.419c0-.2.005-.388.015-.58a10.147,10.147,0,0,1,.3-1.988l0-.015a.055.055,0,0,0,0-.008,10.183,10.183,0,0,1,9.845-7.618M11.5,219.523H7.828V167.189H11.5Zm10.894-57.3v1.453H3.47v-3.551H22.434c-.04.444-.04.847-.04,1.251ZM20.014,184.3h2.421v10.087H20.014Zm11.1,35.185H29.455L28.85,197.9h2.824Zm19.489,0H48.944L48.339,197.9h2.824Zm9.482-25.057H57.7V184.338h2.381ZM57.7,163.679v-2.3c0-.422-.022-.838-.06-1.251H77.068v.2a1.117,1.117,0,0,0-.04.363v2.986ZM74.607,184.3h2.421v10.087H74.607Zm11.137,35.185H84.089L83.484,197.9h2.824Zm19.489,0h-1.654l-.605-21.587H105.8Zm9.482-25.057h-2.421V184.338h2.421Zm12.145,25.1h-3.672V167.189h3.672Zm4.358-55.844H112.294v-2.3c0-.444,0-.847-.04-1.251h18.964Z" transform="translate(0 -88.103)" fill="#fff"/>
    <path id="Path_11270" data-name="Path 11270" d="M36.135,54.472H139.592a1.732,1.732,0,0,0,1.735-1.775V1.735A1.722,1.722,0,0,0,139.592,0H36.135A1.722,1.722,0,0,0,34.4,1.735v51a1.722,1.722,0,0,0,1.735,1.735m1.735-3.51V46.241h99.946v4.721Zm9.563-13.235H59.094v5H47.433ZM137.817,3.51v39.26H62.6V35.992a1.722,1.722,0,0,0-1.735-1.735H45.7a1.722,1.722,0,0,0-1.735,1.735v6.779H37.87V3.51Z" transform="translate(-20.52)" fill="#fff"/>
  </g>
</svg>
