<svg id="Group_16167" data-name="Group 16167" xmlns="http://www.w3.org/2000/svg" xmlns:xlink="http://www.w3.org/1999/xlink" width="119.779" height="166.247" viewBox="0 0 119.779 166.247">
  <defs>
    <clipPath id="clip-path">
      <rect id="Rectangle_2733" data-name="Rectangle 2733" width="119.779" height="166.246" fill="none"/>
    </clipPath>
  </defs>
  <g id="Group_16151" data-name="Group 16151" clip-path="url(#clip-path)">
    <path id="Path_11243" data-name="Path 11243" d="M140.242,87.557a2.227,2.227,0,1,0-1.38,1.774,2.225,2.225,0,0,0,1.38-1.774" transform="translate(-77.823 -48.729)" fill="#fbfafb"/>
    <path id="Path_11244" data-name="Path 11244" d="M118.86,94.162c-2.952-3.966-16.883-14.138-18.107-16.237-.559-.958.064-3.049-.7-4.4A35.383,35.383,0,0,0,95.308,67.7c-4.977-5.506-10-10.973-17.792-11.94-.44-.055-.881-.095-1.321-.137,7.182-5.434,14.91-2.819,20.816-11.27a20.841,20.841,0,0,0,3.548-9.039,26.885,26.885,0,0,0-5.134-19.9c-3.507-4.6-9.427-8.821-15.263-9.55-4.57-.57-10.216,1.18-14.538-.444C63.116,4.471,57.743-.87,55.6.123c-1.586,2.6-.474,5.181-1.483,7.709-1.616,4.046-8.076,2.6-6.326,10.055a15.188,15.188,0,0,0,2.392,4.983,26.909,26.909,0,0,0-2.026,19.576c1.727,5.746,5.665,9.457,10.6,12.544-7.483,3.581-11.812,8.241-17.141,14.5-2.763-1.537-10.824-8.187-12.952-8a20.112,20.112,0,0,0-.675,1.93c-1.133-.969-1.679-2.278-2.675-3.359-1.289-1.4-7.208-4.518-9.085-4.729-.386.685-.527.591-.29,1.408a20.141,20.141,0,0,0,.816,2.213c-1.092,1.213-5.644,2.815-7.746,4.541L4.544,62.137c3.471-2.824,8.292-5.061,11.293-8.258,1.961-1.672,4.236-3.122,6.329-4.633,3.465-2.688,6.941-5.623,10.655-7.945,1.979,1.569,5.417,3.831,5.528,6.681.011.282-.032.563-.049.844l-1.317.253.167.1c-2.7-1.117-5.093-4.635-8.268-3.28a5.494,5.494,0,0,0-.59.344c-.092.995-.031.985.57,1.728,1.219,1.507,3.053,2.467,3.835,4.291-.377,1.133-.825,1.123-1.852,1.667-2.616.282-6.153-2.578-8.279-3.908-1.076.861-2.588,1.748-2.8,3.214a19.089,19.089,0,0,1,9.382,6.316c3.262-2.495,12.425-7.939,13.059-11.616a6.138,6.138,0,0,0-1.516-4.66c-1.383-1.795-4.557-5.59-6.923-5.776-2.5-.2-29.8,19.725-32.5,22.347C.648,60.456-.016,60.973,0,61.9a3.287,3.287,0,0,0,1.285,2.671c1.263,1.145,5.729,1.878,5.949,3.459a12.46,12.46,0,0,1-.065,1.254c1.919,3.057,3.984,6.13,7.759,6.932,2.191.465,3.65-.21,5.559-1.2.141.058.283.113.423.173C27.9,78.2,37.1,88.124,45.263,85.123c-3.2,11.071-10.569,32.129-11.351,42.548a46.521,46.521,0,0,0,9.7,6.323,86.742,86.742,0,0,0-1.319,9.992c-2.086,3.109-9.6,13.293-9.067,16.839a4.3,4.3,0,0,0,2.331,2.926c3.806,2.237,20.231,2.717,24.662,1.505a4.865,4.865,0,0,0,3.012-1.819c2.444-4.165-.14-10.392.067-14.945.171-3.751,1.7-7.779,2.394-11.52l5.808-.125c2.422,4.1,4.528,8.362,6.925,12.461l-.009.786c-.061,3.7-2.6,11.686-.134,14.354a6.679,6.679,0,0,0,5.208,1.793c3.6-.119,20.26-7.1,22.347-9.6a7.072,7.072,0,0,0,1.161-5.319c-.824-6.208-10.251-13.286-12.969-21.335,1.342-1.05,2.7-1.9,3.408-3.507.415-3.537-11.021-35.211-13-41.049A47.92,47.92,0,0,1,90.7,89.78c4.271,3.6,12.855,13.071,17.53,14.947,1.295.52,3.1.308,4.483.3,2.637-1.535,6.244-4.669,6.968-7.755a3.535,3.535,0,0,0-.826-3.11M51.331,14.7c1.5-2.553,4.71-2.882,7.328-3.771.438-1.534-.551-3.75-.986-5.3,2.854.375,5.452,2.932,8.464,3.571,4.347.921,9.026-.123,13.42.507a20.85,20.85,0,0,1,13.763,8.84A22.2,22.2,0,0,1,96.74,35.084c-1.072,5.471-4.35,9.191-8.834,12.211a8.429,8.429,0,0,1-5.066.756C73.72,46.1,76.6,31.4,73.253,27.087c-2.064-2.659-6.2-2.511-9.24-2.943-4.092-.583-8.992-1.6-11.511-5.205A5.415,5.415,0,0,1,51.331,14.7M51.75,41.26a23.092,23.092,0,0,1,1.57-16.8,18.431,18.431,0,0,0,5.406,2.653c2.841.772,10.342.566,12.174,2.618.207.232,1.143,9.843,1.758,11.561a25.555,25.555,0,0,0,5.772,8.866,41.486,41.486,0,0,1-3.876,2.48L74.1,52.8a16.751,16.751,0,0,1-13.492-.81A17.668,17.668,0,0,1,51.75,41.26m22.4,17.045a27.208,27.208,0,0,1-5.01,4.914,12.776,12.776,0,0,1-3.9.986c-2.765.117-4.518-1.31-6.462-3.072l3.864-4.291c3.742.814,7.7,1,11.506,1.463M25.439,67.843c-1.437,3-4.889,3.764-7.761,4.7a12.34,12.34,0,0,1-2.558-.7c-1.769-.646-2.693-1.031-3.522-2.823a3.914,3.914,0,0,1,.243-1.83c1.3-2.87,4.441-3.7,7.18-4.621a3.9,3.9,0,0,1,.918.1c1.976.454,4.59,1.223,5.728,2.963a3.278,3.278,0,0,1-.23,2.215M41.817,82.382C36.34,80.7,31.21,77.362,26.461,74.238l-.447-.8a14.734,14.734,0,0,0,2.875-4.808,8.2,8.2,0,0,1,.563-1.584c3.044-.745,9.566,5.561,12.784,6.767.128.048.257.09.385.135,3.066-3.614,5.81-7.38,9.3-10.618l.143.141c.514,1.8-3.031,10.175-3.955,12.262-1.6,3.6-2.581,5.194-6.291,6.645m2.77,65.279c4.9-.265,9.958.289,14.877.415.115,2.411.482,4.858.749,7.258l-3.638.018L39.987,155.1a30.043,30.043,0,0,1,4.6-7.439m15.518,14.25c-5.586.347-16.73.693-21.886-.684-.962-.925-.769-1.471-.88-2.77,7.509-.056,15.127.1,22.613.686.543,1.046.3,1.618.153,2.768m.2-17.709c-1.54,1.262-11.729-.038-14.391-.24-.01-2.961.219-5.88.459-8.829a95.2,95.2,0,0,0,15.672,1.911c-.506,2.4-1.143,4.778-1.74,7.158m42.822,9.609c-2.2,2.634-17.347,8.772-21.128,9.4a13.829,13.829,0,0,1-.831-1.827c.865-1.981,18.076-8,21.612-9.553a2.745,2.745,0,0,1,.347,1.983m-1.207-6a161.868,161.868,0,0,1-15.135,6.576,9.147,9.147,0,0,1-3.412,1.026c-.641-.013-.78-.373-1.2-.792-.441-1.832.107-3.8.41-5.637a96.122,96.122,0,0,1,14.443-5.921,26.12,26.12,0,0,1,4.893,4.747m-7.4-8.586c-4.24,2.575-9.192,4.438-13.806,6.236-1.667-2.9-3.17-5.9-4.706-8.873a69.188,69.188,0,0,0,14.17-4.008l.745.182a48.171,48.171,0,0,1,3.6,6.463M93.812,126a29.562,29.562,0,0,1-8.911,4.643c-1.657.473-3.322.945-5,1.333-14.069,3.25-29.923,2.093-42.361-5.51,2.094-11.417,5.977-22.729,9.382-33.816,11.726,5.85,24.115,3.925,36.421,1.314,3.633,10.574,7.585,21.238,10.47,32.035M87.2,83.1a28.888,28.888,0,0,1-3.853-3.149c-1.9-1.959-3.8-5.683-6.5-6.339l-.81.494c-.872,4.971,6.872,9.034,5.585,15.653-.913,1.16-1.471,1.13-2.859,1.537-10.73,2.353-20.613,2.249-30.828-1.991,2.332-8.42,5.233-16.512,8.323-24.682,2.773,2.072,5.779,3.617,9.343,3.358,5.29-.383,8.938-4.679,12.112-8.441,7.826.813,14.252,10.3,19.263,15.789-2.794,3.016-6.434,5.4-9.776,7.771m27.368,16.02a7.042,7.042,0,0,1-4.35,2.753c-6.63-4.319-12.674-11.55-19.107-16.561,2.217-1.86,4.451-3.606,6.826-5.26,2.8,2.2,16.51,14.153,17.275,16.559a3.254,3.254,0,0,1-.644,2.509" transform="translate(0 0)" fill="#fbfafb"/>
  </g>
</svg>
