<svg id="Group_16168" data-name="Group 16168" xmlns="http://www.w3.org/2000/svg" xmlns:xlink="http://www.w3.org/1999/xlink" width="138.132" height="145.634" viewBox="0 0 138.132 145.634">
  <defs>
    <clipPath id="clip-path">
      <rect id="Rectangle_2735" data-name="Rectangle 2735" width="138.132" height="145.634" fill="#fff" stroke="#fff" stroke-width="0.5"/>
    </clipPath>
  </defs>
  <g id="Group_16155" data-name="Group 16155" clip-path="url(#clip-path)">
    <g id="Path_11251" data-name="Path 11251" transform="translate(0 -48.466)" fill="#fff" fill-rule="evenodd">
      <path d="M 124.7188415527344 194.3498840332031 L 13.4636812210083 194.3498840332031 C 10.52062606811523 194.3498840332031 8.126262664794922 191.9324798583984 8.126262664794922 188.9610900878906 L 8.126262664794922 128.9842529296875 L 5.549917221069336 128.9842529296875 C 2.351844549179077 128.9842529296875 -0.2499917298555374 126.3824234008789 -0.2499917298555374 123.1843490600586 L -0.2499917298555374 105.2499160766602 C -0.2499917298555374 102.0518417358398 2.351844549179077 99.45000457763672 5.549917221069336 99.45000457763672 L 132.5812225341797 99.45000457763672 C 135.779296875 99.45000457763672 138.3811340332031 102.0518417358398 138.3811340332031 105.2499160766602 L 138.3811340332031 123.1843490600586 C 138.4068756103516 124.7004928588867 137.8230590820312 126.1460418701172 136.7372131347656 127.2504806518555 C 135.6379547119141 128.3685150146484 134.1802520751953 128.9842529296875 132.6326141357422 128.9842529296875 L 130.21044921875 128.9842529296875 L 130.21044921875 188.9610900878906 L 130.21044921875 188.9656372070312 L 130.2102813720703 188.9701843261719 C 130.1580505371094 190.4063568115234 129.5636444091797 191.7552185058594 128.5365295410156 192.7683563232422 C 127.5025863647461 193.7882080078125 126.1467895507812 194.3498840332031 124.7188415527344 194.3498840332031 Z M 11.81231689453125 128.9842529296875 L 11.81231689453125 188.9610900878906 C 11.81231689453125 189.8999938964844 12.576171875 190.6638488769531 13.51506328582764 190.6638488769531 L 124.8216247558594 190.6638488769531 C 125.7605209350586 190.6638488769531 126.5243682861328 189.8999938964844 126.5243682861328 188.9610900878906 L 126.5243682861328 128.9842529296875 L 11.81231689453125 128.9842529296875 Z M 5.549917221069336 103.0846786499023 C 4.384335517883301 103.0846786499023 3.436062812805176 104.0329513549805 3.436062812805176 105.1985321044922 L 3.436062812805176 123.1329727172852 C 3.436062812805176 124.2985534667969 4.384335517883301 125.2468032836914 5.549917221069336 125.2468032836914 L 132.5812225341797 125.2468032836914 C 133.7468109130859 125.2468032836914 134.6950836181641 124.2985534667969 134.6950836181641 123.1329727172852 L 134.6950836181641 105.1985321044922 C 134.6950836181641 104.0329513549805 133.7468109130859 103.0846786499023 132.5812225341797 103.0846786499023 L 5.549917221069336 103.0846786499023 Z" stroke="none"/>
      <path d="M 5.549911499023438 99.69998168945312 C 2.518020629882812 99.69998168945312 -1.52587890625e-05 102.1666259765625 -1.52587890625e-05 105.2499084472656 L -1.52587890625e-05 123.184326171875 C -1.52587890625e-05 126.2162475585938 2.466629028320312 128.7342529296875 5.549911499023438 128.7342529296875 L 8.376251220703125 128.7342529296875 L 8.376251220703125 188.9610900878906 C 8.376251220703125 191.7874145507812 10.63733673095703 194.0998840332031 13.46368408203125 194.0998840332031 L 124.7188415527344 194.0998840332031 C 127.5451889038086 194.0998840332031 129.857666015625 191.7874145507812 129.9604187011719 188.9610900878906 L 129.9604187011719 128.7342529296875 L 132.6326141357422 128.7342529296875 C 135.6645202636719 128.7342529296875 138.1825103759766 126.2162475585938 138.1311340332031 123.184326171875 L 138.1311340332031 105.2499084472656 C 138.1311340332031 102.218017578125 135.6645202636719 99.69998168945312 132.5812225341797 99.69998168945312 L 5.549911499023438 99.69998168945312 M 132.5812225341797 125.4968109130859 L 5.549911499023438 125.4968109130859 C 4.265213012695312 125.4968109130859 3.186065673828125 124.4690551757812 3.186065673828125 123.1329650878906 L 3.186065673828125 105.1985168457031 C 3.186065673828125 103.913818359375 4.213821411132812 102.8346557617188 5.549911499023438 102.8346557617188 L 132.5812225341797 102.8346557617188 C 133.8659362792969 102.8346557617188 134.9450836181641 103.8624267578125 134.9450836181641 105.1985168457031 L 134.9450836181641 123.1329650878906 C 134.9450836181641 124.4176635742188 133.9173126220703 125.4968109130859 132.5812225341797 125.4968109130859 M 124.8216247558594 190.913818359375 L 13.51506042480469 190.913818359375 C 12.43592071533203 190.913818359375 11.56231689453125 190.0402526855469 11.56231689453125 188.9610900878906 L 11.56231689453125 128.7342529296875 L 126.7743682861328 128.7342529296875 L 126.7743682861328 188.9610900878906 C 126.7743682861328 190.0402526855469 125.9007720947266 190.913818359375 124.8216247558594 190.913818359375 M 5.549911499023438 99.19998168945312 L 132.5812225341797 99.19998168945312 C 135.9171600341797 99.19998168945312 138.6311340332031 101.9139709472656 138.6311340332031 105.2499084472656 L 138.6311340332031 123.1803588867188 C 138.6568603515625 124.7667388916016 138.0476379394531 126.2742004394531 136.9154510498047 127.4257659912109 C 135.7688140869141 128.5919799804688 134.247802734375 129.2342529296875 132.6326141357422 129.2342529296875 L 130.4604187011719 129.2342529296875 L 130.4600982666016 188.9792633056641 C 130.4055480957031 190.4793853759766 129.7847747802734 191.8882598876953 128.7120971679688 192.9463348388672 C 127.6310806274414 194.0126342773438 126.2129211425781 194.5998840332031 124.7188415527344 194.5998840332031 L 13.46368408203125 194.5998840332031 C 10.38275146484375 194.5998840332031 7.876251220703125 192.0703430175781 7.876251220703125 188.9610900878906 L 7.876251220703125 129.2342529296875 L 5.549911499023438 129.2342529296875 C 2.213973999023438 129.2342529296875 -0.5000152587890625 126.5202789306641 -0.5000152587890625 123.184326171875 L -0.5000152587890625 105.2499084472656 C -0.5000152587890625 101.9139709472656 2.213973999023438 99.19998168945312 5.549911499023438 99.19998168945312 Z M 132.5812225341797 124.9968109130859 C 133.6089477539062 124.9968109130859 134.4450836181641 124.1606903076172 134.4450836181641 123.1329650878906 L 134.4450836181641 105.1985168457031 C 134.4450836181641 104.1707916259766 133.6089477539062 103.3346557617188 132.5812225341797 103.3346557617188 L 5.549911499023438 103.3346557617188 C 4.522186279296875 103.3346557617188 3.686065673828125 104.1707916259766 3.686065673828125 105.1985168457031 L 3.686065673828125 123.1329650878906 C 3.686065673828125 124.1606903076172 4.522186279296875 124.9968109130859 5.549911499023438 124.9968109130859 L 132.5812225341797 124.9968109130859 Z M 126.2743682861328 129.2342529296875 L 12.06231689453125 129.2342529296875 L 12.06231689453125 188.9610900878906 C 12.06231689453125 189.7621307373047 12.71400451660156 190.413818359375 13.51506042480469 190.413818359375 L 124.8216247558594 190.413818359375 C 125.6226806640625 190.413818359375 126.2743682861328 189.7621307373047 126.2743682861328 188.9610900878906 L 126.2743682861328 129.2342529296875 Z" stroke="none" fill="#fff"/>
    </g>
    <g id="Path_11252" data-name="Path 11252" transform="translate(-17.16 -89.349)" fill="#fff" fill-rule="evenodd">
      <path d="M 131.6526489257812 217.8633575439453 L 40.84991455078125 217.8633575439453 C 37.65183258056641 217.8633575439453 35.05000686645508 215.2615356445312 35.05000686645508 212.0634460449219 L 35.05000686645508 189.3499145507812 C 35.05000686645508 186.1518249511719 37.65183258056641 183.5500030517578 40.84991455078125 183.5500030517578 L 131.6012573242188 183.5500030517578 C 134.7993316650391 183.5500030517578 137.4011535644531 186.1518249511719 137.4011535644531 189.3499145507812 L 137.4011535644531 212.0634460449219 C 137.4266815185547 213.5926971435547 136.8469696044922 215.0409545898438 135.7687835693359 216.1372528076172 C 134.6740875244141 217.2503509521484 133.2122802734375 217.8633575439453 131.6526489257812 217.8633575439453 Z M 40.84991455078125 187.2360534667969 C 39.684326171875 187.2360534667969 38.73606109619141 188.184326171875 38.73606109619141 189.3499145507812 L 38.73606109619141 212.0634460449219 C 38.73606109619141 213.2290344238281 39.684326171875 214.1772918701172 40.84991455078125 214.1772918701172 L 131.6012573242188 214.1772918701172 C 132.7668304443359 214.1772918701172 133.7151031494141 213.2290344238281 133.7151031494141 212.0634460449219 L 133.7151031494141 189.3499145507812 C 133.7151031494141 188.184326171875 132.7668304443359 187.2360534667969 131.6012573242188 187.2360534667969 L 40.84991455078125 187.2360534667969 Z" stroke="none"/>
      <path d="M 131.6526489257812 217.6133575439453 C 134.6845397949219 217.6133575439453 137.2025451660156 215.146728515625 137.1511535644531 212.0634460449219 L 137.1511535644531 189.3499145507812 C 137.1511535644531 186.3180236816406 134.6845397949219 183.8000030517578 131.6012573242188 183.8000030517578 L 40.84991455078125 183.8000030517578 C 37.81801986694336 183.8000030517578 35.30000686645508 186.2666320800781 35.30000686645508 189.3499145507812 L 35.30000686645508 212.0634460449219 C 35.30000686645508 215.0953369140625 37.76663589477539 217.6133575439453 40.84991455078125 217.6133575439453 L 131.6526489257812 217.6133575439453 M 40.84991455078125 186.9860534667969 L 131.6012573242188 186.9860534667969 C 132.8859558105469 186.9860534667969 133.9651031494141 188.0138244628906 133.9651031494141 189.3499145507812 L 133.9651031494141 212.0634460449219 C 133.9651031494141 213.34814453125 132.9373474121094 214.4272918701172 131.6012573242188 214.4272918701172 L 40.84991455078125 214.4272918701172 C 39.56520843505859 214.4272918701172 38.48606109619141 213.3995361328125 38.48606109619141 212.0634460449219 L 38.48606109619141 189.3499145507812 C 38.48606109619141 188.0652160644531 39.51382064819336 186.9860534667969 40.84991455078125 186.9860534667969 M 131.6526489257812 218.1133575439453 L 40.84991455078125 218.1133575439453 C 37.51398086547852 218.1133575439453 34.80000686645508 215.3993682861328 34.80000686645508 212.0634460449219 L 34.80000686645508 189.3499145507812 C 34.80000686645508 186.0139923095703 37.51398086547852 183.3000030517578 40.84991455078125 183.3000030517578 L 131.6012573242188 183.3000030517578 C 134.9371795654297 183.3000030517578 137.6511535644531 186.0139923095703 137.6511535644531 189.3499145507812 L 137.6511535644531 212.0592041015625 C 137.6767272949219 213.6586608886719 137.0716247558594 215.1690521240234 135.9470367431641 216.3125457763672 C 134.8049468994141 217.4738159179688 133.2798461914062 218.1133575439453 131.6526489257812 218.1133575439453 Z M 40.84991455078125 187.4860534667969 C 39.82218170166016 187.4860534667969 38.98606109619141 188.3221893310547 38.98606109619141 189.3499145507812 L 38.98606109619141 212.0634460449219 C 38.98606109619141 213.0911712646484 39.82218170166016 213.9272918701172 40.84991455078125 213.9272918701172 L 131.6012573242188 213.9272918701172 C 132.6289825439453 213.9272918701172 133.4651031494141 213.0911712646484 133.4651031494141 212.0634460449219 L 133.4651031494141 189.3499145507812 C 133.4651031494141 188.3221893310547 132.6289825439453 187.4860534667969 131.6012573242188 187.4860534667969 L 40.84991455078125 187.4860534667969 Z" stroke="none" fill="#fff"/>
    </g>
    <g id="Path_11253" data-name="Path 11253" transform="translate(-24.987 -97.418)" fill="#fff" fill-rule="evenodd">
      <path d="M 57.51518249511719 217.4025115966797 L 52.99303436279297 217.4025115966797 C 51.97678375244141 217.4025115966797 51.15000152587891 216.5757293701172 51.15000152587891 215.5594787597656 L 51.15000152587891 201.9930419921875 C 51.15000152587891 200.9767913818359 51.97678375244141 200.1499938964844 52.99303436279297 200.1499938964844 L 57.51518249511719 200.1499938964844 C 59.2223014831543 200.1499938964844 60.8226432800293 200.8101806640625 62.02140426635742 202.0089569091797 C 63.22017288208008 203.2077178955078 63.88036346435547 204.8080596923828 63.88036346435547 206.5151824951172 L 63.88036346435547 211.0373382568359 C 63.88036346435547 212.7444610595703 63.22017288208008 214.3447875976562 62.02140426635742 215.5435485839844 C 60.8226432800293 216.7423248291016 59.2223014831543 217.4025115966797 57.51518249511719 217.4025115966797 Z M 54.83606338500977 213.7164611816406 L 57.51518249511719 213.7164611816406 C 58.96741104125977 213.7164611816406 60.19430160522461 212.4895782470703 60.19430160522461 211.0373382568359 L 60.19430160522461 206.5151824951172 C 60.19430160522461 205.0629425048828 58.96741104125977 203.8360595703125 57.51518249511719 203.8360595703125 L 54.83606338500977 203.8360595703125 L 54.83606338500977 213.7164611816406 Z" stroke="none"/>
      <path d="M 57.51518249511719 217.1525115966797 C 60.90680313110352 217.1525115966797 63.63036346435547 214.428955078125 63.63036346435547 211.0373382568359 L 63.63036346435547 206.5151824951172 C 63.63036346435547 203.1235656738281 60.90680313110352 200.3999938964844 57.51518249511719 200.3999938964844 L 52.99303436279297 200.3999938964844 C 52.11943435668945 200.3999938964844 51.40000152587891 201.1194458007812 51.40000152587891 201.9930419921875 L 51.40000152587891 215.5594787597656 C 51.40000152587891 216.4330749511719 52.11943435668945 217.1525115966797 52.99303436279297 217.1525115966797 L 57.51518249511719 217.1525115966797 M 54.58606338500977 203.5860595703125 L 57.51518249511719 203.5860595703125 C 59.10821151733398 203.5860595703125 60.44430160522461 204.9221496582031 60.44430160522461 206.5151824951172 L 60.44430160522461 211.0373382568359 C 60.44430160522461 212.63037109375 59.10821151733398 213.9664611816406 57.51518249511719 213.9664611816406 L 54.58606338500977 213.9664611816406 L 54.58606338500977 203.5860595703125 M 57.51518249511719 217.6525115966797 L 52.99303436279297 217.6525115966797 C 51.83893203735352 217.6525115966797 50.90000152587891 216.7135925292969 50.90000152587891 215.5594787597656 L 50.90000152587891 201.9930419921875 C 50.90000152587891 200.8389282226562 51.83893203735352 199.8999938964844 52.99303436279297 199.8999938964844 L 57.51518249511719 199.8999938964844 C 59.2890739440918 199.8999938964844 60.95220184326172 200.5861968994141 62.19818115234375 201.8321685791016 C 63.44417190551758 203.0781707763672 64.13036346435547 204.7413024902344 64.13036346435547 206.5151824951172 L 64.13036346435547 211.0373382568359 C 64.13036346435547 212.8112182617188 63.44417190551758 214.4743499755859 62.19818115234375 215.7203369140625 C 60.95220184326172 216.9663238525391 59.2890739440918 217.6525115966797 57.51518249511719 217.6525115966797 Z M 55.08606338500977 213.4664611816406 L 57.51518249511719 213.4664611816406 C 58.83190155029297 213.4664611816406 59.94430160522461 212.3540496826172 59.94430160522461 211.0373382568359 L 59.94430160522461 206.5151824951172 C 59.94430160522461 205.1984710693359 58.83190155029297 204.0860595703125 57.51518249511719 204.0860595703125 L 55.08606338500977 204.0860595703125 L 55.08606338500977 213.4664611816406 Z" stroke="none" fill="#fff"/>
    </g>
    <g id="Path_11254" data-name="Path 11254" transform="translate(-38.841 -97.418)" fill="#fff" fill-rule="evenodd">
      <path d="M 86.01518249511719 217.4025115966797 L 85.91239929199219 217.4025115966797 C 82.45930480957031 217.4025115966797 79.65000152587891 214.5932006835938 79.65000152587891 211.1401062011719 L 79.65000152587891 206.4124145507812 C 79.65000152587891 202.9593048095703 82.45930480957031 200.1499938964844 85.91239929199219 200.1499938964844 L 86.01518249511719 200.1499938964844 C 87.72230529785156 200.1499938964844 89.32263946533203 200.8101806640625 90.52140045166016 202.0089569091797 C 91.72016143798828 203.2077178955078 92.38035583496094 204.8080596923828 92.38035583496094 206.5151824951172 L 92.38035583496094 211.0373382568359 C 92.38035583496094 214.5471038818359 89.52495574951172 217.4025115966797 86.01518249511719 217.4025115966797 Z M 85.91239929199219 203.8360595703125 C 84.51588439941406 203.8360595703125 83.3360595703125 205.0158843994141 83.3360595703125 206.4124145507812 L 83.3360595703125 211.1401062011719 C 83.3360595703125 212.5366363525391 84.51588439941406 213.7164611816406 85.91239929199219 213.7164611816406 L 86.01518249511719 213.7164611816406 C 87.46741485595703 213.7164611816406 88.69430541992188 212.4895782470703 88.69430541992188 211.0373382568359 L 88.69430541992188 206.5151824951172 C 88.69430541992188 205.0629425048828 87.46741485595703 203.8360595703125 86.01518249511719 203.8360595703125 L 85.91239929199219 203.8360595703125 Z" stroke="none"/>
      <path d="M 86.01518249511719 217.1525115966797 C 89.35541534423828 217.1525115966797 92.13035583496094 214.428955078125 92.13035583496094 211.0373382568359 L 92.13035583496094 206.5151824951172 C 92.13035583496094 203.1235656738281 89.40679931640625 200.3999938964844 86.01518249511719 200.3999938964844 L 85.91239929199219 200.3999938964844 C 82.62356567382812 200.3999938964844 79.90000152587891 203.0721893310547 79.90000152587891 206.4124145507812 L 79.90000152587891 211.1401062011719 C 79.90000152587891 214.428955078125 82.57218170166016 217.1525115966797 85.91239929199219 217.1525115966797 L 86.01518249511719 217.1525115966797 M 85.91239929199219 203.5860595703125 L 86.01518249511719 203.5860595703125 C 87.60821533203125 203.5860595703125 88.94430541992188 204.9221496582031 88.94430541992188 206.5151824951172 L 88.94430541992188 211.0373382568359 C 88.94430541992188 212.63037109375 87.60821533203125 213.9664611816406 86.01518249511719 213.9664611816406 L 85.91239929199219 213.9664611816406 C 84.37076568603516 213.9664611816406 83.0860595703125 212.6817626953125 83.0860595703125 211.1401062011719 L 83.0860595703125 206.4124145507812 C 83.0860595703125 204.8707580566406 84.37076568603516 203.5860595703125 85.91239929199219 203.5860595703125 M 86.01518249511719 217.6525115966797 L 85.91239929199219 217.6525115966797 C 82.32144927978516 217.6525115966797 79.40000152587891 214.7310638427734 79.40000152587891 211.1401062011719 L 79.40000152587891 206.4124145507812 C 79.40000152587891 202.8214569091797 82.32144927978516 199.8999938964844 85.91239929199219 199.8999938964844 L 86.01518249511719 199.8999938964844 C 87.78907012939453 199.8999938964844 89.45219421386719 200.5861968994141 90.69818115234375 201.8321685791016 C 91.94416046142578 203.0781707763672 92.63035583496094 204.7412872314453 92.63035583496094 206.5151824951172 L 92.63035583496094 211.0373382568359 C 92.63035583496094 214.6849517822266 89.66280364990234 217.6525115966797 86.01518249511719 217.6525115966797 Z M 85.91239929199219 204.0860595703125 C 84.65139007568359 204.0860595703125 83.5860595703125 205.1513977050781 83.5860595703125 206.4124145507812 L 83.5860595703125 211.1401062011719 C 83.5860595703125 212.401123046875 84.65139007568359 213.4664611816406 85.91239929199219 213.4664611816406 L 86.01518249511719 213.4664611816406 C 87.33190155029297 213.4664611816406 88.44430541992188 212.3540496826172 88.44430541992188 211.0373382568359 L 88.44430541992188 206.5151824951172 C 88.44430541992188 205.1984710693359 87.33190155029297 204.0860595703125 86.01518249511719 204.0860595703125 L 85.91239929199219 204.0860595703125 Z" stroke="none" fill="#fff"/>
    </g>
    <path id="Path_11255" data-name="Path 11255" d="M109.893,217.1a1.6,1.6,0,0,0,1.593-1.593v-8.325l6.115,9.2a1.615,1.615,0,0,0,1.336.719.764.764,0,0,0,.462-.1,1.6,1.6,0,0,0,1.131-1.542V201.893a1.593,1.593,0,0,0-3.186,0v8.325l-6.115-9.2a1.636,1.636,0,0,0-1.8-.617,1.6,1.6,0,0,0-1.131,1.542v13.566a1.6,1.6,0,0,0,1.593,1.593" transform="translate(-52.647 -97.37)" fill="#fff" stroke="#fff" stroke-width="0.5" fill-rule="evenodd"/>
    <g id="Path_11256" data-name="Path 11256" transform="translate(-66.495 -97.467)" fill="#fff" fill-rule="evenodd">
      <path d="M 138.3409118652344 217.457763671875 C 138.3408660888672 217.457763671875 138.3408508300781 217.457763671875 138.3408050537109 217.457763671875 C 138.1116180419922 217.4577331542969 137.8883666992188 217.4149169921875 137.6772613525391 217.3304748535156 L 137.6735534667969 217.3289947509766 L 137.6699066162109 217.327392578125 C 136.7517700195312 216.9257202148438 136.3007049560547 215.8592071533203 136.6643981933594 214.9499816894531 L 137.9218902587891 211.9318237304688 C 137.9680328369141 211.7198028564453 138.0520629882812 211.5179290771484 138.1719360351562 211.3310546875 L 142.3184204101562 201.3802185058594 C 142.6133117675781 200.6725158691406 143.2566833496094 200.25 144.0394592285156 200.25 C 144.8222351074219 200.25 145.4656066894531 200.6725158691406 145.7604827880859 201.3802337646484 L 151.4642333984375 214.9459228515625 C 151.6619110107422 215.3976593017578 151.6661682128906 215.8976593017578 151.4748077392578 216.3505096435547 C 151.2843475341797 216.8012542724609 150.9100646972656 217.1591491699219 150.4479675292969 217.3324432373047 L 150.4346160888672 217.3374328613281 L 150.4207153320312 217.3409118652344 C 150.2039489746094 217.3950958251953 149.9798126220703 217.4511260986328 149.7435302734375 217.4511260986328 C 148.9958038330078 217.4511260986328 148.3041839599609 216.9969329833984 148.0225067138672 216.3209075927734 L 147.1192474365234 214.1622924804688 L 140.9596557617188 214.1622924804688 L 140.0562438964844 216.3212585449219 C 139.7536010742188 217.0131072998047 139.0809020996094 217.457763671875 138.3409118652344 217.457763671875 Z M 142.5018463134766 210.4762268066406 L 145.5770721435547 210.4762268066406 L 144.0394592285156 206.8005065917969 L 142.5018463134766 210.4762268066406 Z" stroke="none"/>
      <path d="M 138.3408203125 217.2077484130859 C 138.9517517089844 217.2077941894531 139.5520782470703 216.8499908447266 139.8256225585938 216.2247619628906 L 140.7932739257812 213.9122924804688 L 147.28564453125 213.9122924804688 L 148.2532806396484 216.2247619628906 C 148.5102233886719 216.8414154052734 149.1268768310547 217.2011260986328 149.7435302734375 217.2011260986328 C 149.9490661621094 217.2011260986328 150.1546325683594 217.1497344970703 150.3601837158203 217.0983581542969 C 151.1824035644531 216.7900238037109 151.593505859375 215.8650360107422 151.2337799072266 215.0428314208984 L 145.5297088623047 201.4763793945312 C 145.2727661132812 200.8597106933594 144.7074890136719 200.5 144.0394592285156 200.5 C 143.3714141845703 200.5 142.8061370849609 200.8597106933594 142.5491943359375 201.4763793945312 L 138.3939514160156 211.4482269287109 C 138.2834777832031 211.6157531738281 138.2027893066406 211.8038330078125 138.1616821289062 212.0063171386719 L 136.8965148925781 215.0428314208984 C 136.5881805419922 215.8136596679688 136.9479064941406 216.7386474609375 137.7701110839844 217.0983581542969 C 137.9547729492188 217.1722259521484 138.1483612060547 217.2077484130859 138.3408203125 217.2077484130859 M 145.95263671875 210.7262268066406 L 142.1262817382812 210.7262268066406 L 144.0394592285156 206.1526947021484 L 145.95263671875 210.7262268066406 M 138.3408966064453 217.707763671875 L 138.3408660888672 217.707763671875 C 138.0797119140625 217.7077484130859 137.8251953125 217.6589050292969 137.5844268798828 217.5625915527344 L 137.5697021484375 217.5564422607422 C 136.5292358398438 217.1012420654297 136.0189971923828 215.8903350830078 136.4322662353516 214.8571319580078 L 136.4349670410156 214.8505249023438 L 137.6826934814453 211.8558807373047 C 137.7344970703125 211.6302185058594 137.8240356445312 211.4151306152344 137.9493865966797 211.2151794433594 L 142.0876617431641 201.2840576171875 C 142.4176788330078 200.4920349121094 143.1655578613281 200 144.0394592285156 200 C 144.9133605957031 200 145.6612396240234 200.4920349121094 145.9912567138672 201.2840728759766 L 151.6932983398438 214.8456878662109 C 151.9187316894531 215.3633575439453 151.9229583740234 215.9322052001953 151.7050933837891 216.4478149414062 C 151.488037109375 216.9614868164062 151.0618133544922 217.3692474365234 150.5357360839844 217.5665283203125 L 150.5090637207031 217.5765228271484 L 150.4813385009766 217.5834655761719 C 150.2606811523438 217.6386108398438 150.0105743408203 217.7011260986328 149.7435302734375 217.7011260986328 C 148.8961181640625 217.7011260986328 148.1117553710938 217.1851043701172 147.791748046875 216.4170684814453 L 146.9528503417969 214.4122924804688 L 141.1260681152344 214.4122924804688 L 140.2837066650391 216.4251708984375 C 139.9428253173828 217.2043151855469 139.1802368164062 217.707763671875 138.3408966064453 217.707763671875 Z M 142.8774261474609 210.2262268066406 L 145.2014923095703 210.2262268066406 L 144.0394592285156 207.4483489990234 L 142.8774261474609 210.2262268066406 Z" stroke="none" fill="#fff"/>
    </g>
    <path id="Path_11257" data-name="Path 11257" d="M166.793,203.586h2.929v11.973a1.593,1.593,0,1,0,3.186,0V203.586h2.929a1.593,1.593,0,0,0,0-3.186h-9.044a1.593,1.593,0,0,0,0,3.186" transform="translate(-80.307 -97.418)" fill="#fff" stroke="#fff" stroke-width="0.5" fill-rule="evenodd"/>
    <path id="Path_11258" data-name="Path 11258" d="M195.293,217.153h9.044a1.636,1.636,0,0,0,1.593-1.593,1.6,1.6,0,0,0-1.593-1.593h-7.451v-3.6h7.451a1.636,1.636,0,0,0,1.593-1.593,1.6,1.6,0,0,0-1.593-1.593h-7.451v-3.6h7.451a1.593,1.593,0,0,0,0-3.186h-9.044a1.6,1.6,0,0,0-1.593,1.593v13.566a1.6,1.6,0,0,0,1.593,1.593" transform="translate(-94.161 -97.418)" fill="#fff" stroke="#fff" stroke-width="0.5" fill-rule="evenodd"/>
    <path id="Path_11259" data-name="Path 11259" d="M113.011,45.222A22.611,22.611,0,1,0,90.4,22.611a22.611,22.611,0,0,0,22.611,22.611m0-42.087A19.425,19.425,0,1,1,93.586,22.559,19.409,19.409,0,0,1,113.011,3.135" transform="translate(-43.945)" fill="#fff" stroke="#fff" stroke-width="0.5" fill-rule="evenodd"/>
    <path id="Path_11260" data-name="Path 11260" d="M124.412,31.3h4.419a2.826,2.826,0,0,1,0,5.653h-7.194a1.593,1.593,0,1,0,0,3.186h3.392v3.032a1.6,1.6,0,0,0,1.593,1.593,1.569,1.569,0,0,0,1.593-1.593V40.14h.617a6.012,6.012,0,0,0,0-12.025h-4.419a2.818,2.818,0,0,1-2.826-2.826,2.851,2.851,0,0,1,2.826-2.826h7.194a1.593,1.593,0,0,0,0-3.186h-3.392V16.193a1.593,1.593,0,1,0-3.186,0v3.083h-.617a6.012,6.012,0,1,0,0,12.025" transform="translate(-57.557 -7.097)" fill="#fff" stroke="#fff" stroke-width="0.5" fill-rule="evenodd"/>
    <path id="Path_11261" data-name="Path 11261" d="M135.136,124.8H55.793a1.593,1.593,0,0,0,0,3.186h79.292a1.682,1.682,0,0,0,1.644-1.593,1.6,1.6,0,0,0-1.593-1.593" transform="translate(-26.348 -60.668)" fill="#fff" stroke="#fff" stroke-width="0.5" fill-rule="evenodd"/>
  </g>
</svg>
