<svg xmlns="http://www.w3.org/2000/svg" xmlns:xlink="http://www.w3.org/1999/xlink" width="136.229" height="134.889" viewBox="0 0 136.229 134.889">
  <defs>
    <clipPath id="clip-path">
      <rect id="Rectangle_2739" data-name="Rectangle 2739" width="136.229" height="134.889" fill="#fff" stroke="#cf5c49" stroke-width="1"/>
    </clipPath>
  </defs>
  <g id="Group_16165" data-name="Group 16165" transform="translate(0 0)">
    <g id="Group_16157" data-name="Group 16157" transform="translate(0 0)" clip-path="url(#clip-path)">
      <path id="Path_11262" data-name="Path 11262" d="M108.605,0H23.433a2.936,2.936,0,0,0-2.9,2.865,2.936,2.936,0,0,0,2.9,2.865h82.5V87.281h-82.5a2.865,2.865,0,1,0,0,5.731h85.172a2.937,2.937,0,0,0,2.9-2.865V2.865A2.937,2.937,0,0,0,108.605,0" transform="translate(24.726 0)" fill="#fff" stroke="#cf5c49" stroke-width="1"/>
      <path id="Path_11263" data-name="Path 11263" d="M16.014,48.771V34.665a2.9,2.9,0,0,0-5.8,0V48.771a2.9,2.9,0,0,0,5.8,0" transform="translate(12.302 38.289)" fill="#fff" stroke="#cf5c49" stroke-width="1"/>
      <path id="Path_11264" data-name="Path 11264" d="M48.159,64.579a2.935,2.935,0,0,0,2.9-2.865V53.339H76.7a2.933,2.933,0,0,0,2.9-2.865V39.232a2.933,2.933,0,0,0-2.9-2.865H44.368a24.039,24.039,0,0,0-8.7-6.171,16.944,16.944,0,1,0-20.513,0A25.326,25.326,0,0,0,0,53.339v8.6A2.935,2.935,0,0,0,2.9,64.8h8.25V87.281a2.9,2.9,0,0,0,5.8,0V53.339a2.9,2.9,0,0,0-5.8,0v5.51H5.574v-5.51A19.774,19.774,0,0,1,25.417,33.722,20.2,20.2,0,0,1,41.024,41a2.753,2.753,0,0,0,2.228,1.1H73.576v5.51H47.936a2.841,2.841,0,0,0-2.9,3.086c0,.882.223,1.763.223,2.424v5.51H39.687v-5.51a2.9,2.9,0,0,0-5.8,0V86.84a2.9,2.9,0,0,0,5.8,0V64.579ZM14.047,16.971a11.372,11.372,0,0,1,22.742,0,11.372,11.372,0,0,1-22.742,0" transform="translate(0 0)" fill="#fff" stroke="#cf5c49" stroke-width="1"/>
      <path id="Path_11265" data-name="Path 11265" d="M24.379,37.265a2.935,2.935,0,0,0,2.9,2.865H87.032a2.865,2.865,0,1,0,0-5.731H27.277a2.935,2.935,0,0,0-2.9,2.865" transform="translate(29.354 41.42)" fill="#fff" stroke="#cf5c49" stroke-width="1"/>
      <g id="Rectangle_2736" data-name="Rectangle 2736" transform="translate(59.53 14.106)" fill="#fff" stroke="#cf5c49" stroke-width="1">
        <rect width="5.574" height="5.51" stroke="none"/>
        <rect x="0.5" y="0.5" width="4.574" height="4.51" fill="none"/>
      </g>
      <g id="Rectangle_2737" data-name="Rectangle 2737" transform="translate(79.373 14.106)" fill="#fff" stroke="#cf5c49" stroke-width="1">
        <rect width="5.574" height="5.51" stroke="none"/>
        <rect x="0.5" y="0.5" width="4.574" height="4.51" fill="none"/>
      </g>
      <g id="Rectangle_2738" data-name="Rectangle 2738" transform="translate(99.219 14.106)" fill="#fff" stroke="#cf5c49" stroke-width="1">
        <rect width="5.574" height="5.51" stroke="none"/>
        <rect x="0.5" y="0.5" width="4.574" height="4.51" fill="none"/>
      </g>
      <g id="Path_11266" data-name="Path 11266" transform="translate(0 52.136)" fill="#fff">
        <path d="M 31.21407127380371 82.25289154052734 L 2.898351430892944 82.25289154052734 C 1.620721459388733 82.25289154052734 0.5000014901161194 81.14761352539062 0.5000014901161194 79.88759613037109 L 0.5000014901161194 77.02229309082031 C 0.5000014901161194 73.99580383300781 1.285181522369385 71.07356262207031 2.770661354064941 68.57146453857422 C 4.238141536712646 66.09970092773438 6.368371486663818 64.06793212890625 8.931071281433105 62.69580459594727 L 9.528411865234375 62.37597274780273 L 9.046651840209961 61.89951324462891 C 7.101991653442383 59.97622299194336 6.074101448059082 57.43160247802734 6.074101448059082 54.54076385498047 C 6.074101448059082 51.69074249267578 7.20919132232666 48.99910354614258 9.270281791687012 46.96169281005859 C 11.33283138275146 44.92284393310547 14.05839157104492 43.79999160766602 16.94490242004395 43.79999160766602 C 19.83222198486328 43.79999160766602 22.55807113647461 44.92283248901367 24.62033081054688 46.96167373657227 C 26.68090057373047 48.99884414672852 27.81571197509766 51.69048309326172 27.81571197509766 54.54076385498047 C 27.81571197509766 57.43372344970703 26.78788185119629 59.97827529907227 24.84334182739258 61.89931488037109 L 24.3854808807373 62.35165405273438 L 24.93698120117188 62.68345260620117 C 27.43045234680176 64.18360137939453 29.55040168762207 66.27918243408203 31.06765174865723 68.74364471435547 C 32.62670135498047 71.2760009765625 33.5065803527832 74.14182281494141 33.61242294311523 77.03150939941406 L 33.61242294311523 79.88759613037109 C 33.61242294311523 81.14761352539062 32.49170303344727 82.25289154052734 31.21407127380371 82.25289154052734 Z M 16.94490242004395 65.28153228759766 C 10.39932155609131 65.28153228759766 5.074101448059082 70.54841613769531 5.074101448059082 77.02229309082031 L 5.074101448059082 77.52229309082031 L 5.574101448059082 77.52229309082031 L 28.31571197509766 77.52229309082031 L 28.81571197509766 77.52229309082031 L 28.81571197509766 77.02229309082031 C 28.81571197509766 70.54841613769531 23.49049186706543 65.28153228759766 16.94490242004395 65.28153228759766 Z M 16.72229194641113 48.53058242797852 C 13.31626129150391 48.53058242797852 10.64820194244385 51.17057418823242 10.64820194244385 54.54076385498047 C 10.64820194244385 57.74930191040039 13.32821178436279 60.56381225585938 16.38342094421387 60.56381225585938 C 16.50231552124023 60.56381225585938 16.62255096435547 60.55948257446289 16.74112892150879 60.55092620849609 C 20.13822746276855 60.54128265380859 22.79639053344727 57.90479278564453 22.79639053344727 54.54076385498047 C 22.79639053344727 51.17057418823242 20.12833213806152 48.53058242797852 16.72229194641113 48.53058242797852 Z" stroke="none"/>
        <path d="M 16.94490242004395 44.29998779296875 C 14.19086074829102 44.29998779296875 11.59012222290039 45.37155151367188 9.621791839599609 47.31727600097656 C 7.656461715698242 49.26003265380859 6.574102401733398 51.82537841796875 6.574102401733398 54.540771484375 C 6.574102401733398 57.29505920410156 7.550682067871094 59.71674346923828 9.398250579833984 61.54400634765625 L 10.36177062988281 62.49694061279297 L 9.167081832885742 63.13660049438477 C 6.684720993041992 64.46571350097656 4.621551513671875 66.43331909179688 3.200601577758789 68.82672119140625 C 1.760951995849609 71.25160217285156 1 74.08558654785156 1 77.02229309082031 L 1 79.88760375976562 C 1 80.88125610351562 1.887081146240234 81.75289154052734 2.898351669311523 81.75289154052734 L 31.21407127380371 81.75289154052734 C 32.225341796875 81.75289154052734 33.11242294311523 80.88125610351562 33.11242294311523 79.88760375976562 L 33.11242294311523 77.04060363769531 C 33.00819778442383 74.24017333984375 32.15407562255859 71.4620361328125 30.64187240600586 69.00578308105469 C 29.16635131835938 66.60908508300781 27.1044921875 64.57101440429688 24.67922210693359 63.11188888549805 L 23.57621192932129 62.44828033447266 L 24.49194145202637 61.54361724853516 C 26.33927154541016 59.71861267089844 27.31571197509766 57.29707336425781 27.31571197509766 54.540771484375 C 27.31571197509766 51.82511901855469 26.2336311340332 49.25975036621094 24.26880264282227 47.31723022460938 C 22.30075073242188 45.37152862548828 19.69974136352539 44.29998779296875 16.94490242004395 44.29998779296875 M 16.75971603393555 61.05084991455078 C 16.63482856750488 61.0594482421875 16.50843238830566 61.06381225585938 16.38342094421387 61.06381225585938 C 13.06185150146484 61.06381225585938 10.14820098876953 58.01566314697266 10.14820098876953 54.540771484375 C 10.14820098876953 50.89019775390625 13.03588104248047 48.03058624267578 16.72229194641113 48.03058624267578 C 20.4087028503418 48.03058624267578 23.29639053344727 50.89019775390625 23.29639053344727 54.540771484375 C 23.29639053344727 58.17908477783203 20.42838287353516 61.03173828125 16.75971603393555 61.05084991455078 M 29.31571197509766 78.02229309082031 L 4.574102401733398 78.02229309082031 L 4.574102401733398 77.02229309082031 C 4.574102401733398 70.272705078125 10.12362098693848 64.78152465820312 16.94490242004395 64.78152465820312 C 23.76619148254395 64.78152465820312 29.31571197509766 70.272705078125 29.31571197509766 77.02229309082031 L 29.31571197509766 78.02229309082031 M 16.94490242004395 43.29998779296875 C 23.18904113769531 43.29998779296875 28.31571197509766 48.36934661865234 28.31571197509766 54.540771484375 C 28.31571197509766 57.62645721435547 27.20266151428223 60.27134704589844 25.19474029541016 62.25500869750977 C 30.32362174987793 65.34071350097656 33.88981246948242 70.85089111328125 34.11242294311523 77.02229309082031 L 34.11242294311523 79.88760375976562 C 34.11242294311523 81.43043518066406 32.77455139160156 82.75289154052734 31.21407127380371 82.75289154052734 L 2.898351669311523 82.75289154052734 C 1.337871551513672 82.75289154052734 0 81.43043518066406 0 79.88760375976562 L 0 77.02229309082031 C 0 70.6304931640625 3.343570709228516 65.12031555175781 8.695060729980469 62.25500869750977 C 6.689361572265625 60.27134704589844 5.574102401733398 57.62645721435547 5.574102401733398 54.540771484375 C 5.574102401733398 48.36934661865234 10.70297241210938 43.29998779296875 16.94490242004395 43.29998779296875 Z M 16.38341903686523 60.06380462646484 C 16.49580955505371 60.06380462646484 16.60907554626465 60.05956268310547 16.72229194641113 60.05094909667969 C 19.84326171875 60.05094909667969 22.29639053344727 57.62645721435547 22.29639053344727 54.540771484375 C 22.29639053344727 51.45506286621094 19.84326171875 49.03058624267578 16.72229194641113 49.03058624267578 C 13.60133171081543 49.03058624267578 11.14820098876953 51.45506286621094 11.14820098876953 54.540771484375 C 11.14820098876953 57.50592803955078 13.61859512329102 60.06380462646484 16.38341903686523 60.06380462646484 Z M 28.31571197509766 77.02229309082031 C 28.31571197509766 70.85089111328125 23.18904113769531 65.78152465820312 16.94490242004395 65.78152465820312 C 10.70297241210938 65.78152465820312 5.574102401733398 70.85089111328125 5.574102401733398 77.02229309082031 L 28.31571197509766 77.02229309082031 Z" stroke="none" fill="#cf5c49"/>
      </g>
      <g id="Path_11267" data-name="Path 11267" transform="translate(27.771 52.136)" fill="#fff">
        <path d="M 54.27806854248047 82.25289154052734 L 25.96235847473145 82.25289154052734 C 24.68472862243652 82.25289154052734 23.56399917602539 81.14761352539062 23.56399917602539 79.88759613037109 L 23.56399917602539 77.02229309082031 C 23.56399917602539 74.02492523193359 24.38622856140137 71.10506439208984 25.94180870056152 68.57834625244141 C 27.45722961425781 66.11685180664062 29.62739944458008 64.08270263671875 32.21768951416016 62.69580459594727 L 32.81538009643555 62.37579345703125 L 32.33308029174805 61.89931488037109 C 30.3885383605957 59.97827529907227 29.36070823669434 57.43372344970703 29.36070823669434 54.54076385498047 C 29.36070823669434 51.69074249267578 30.49579811096191 48.99910354614258 32.55690002441406 46.96169281005859 C 34.61943817138672 44.92284393310547 37.34500885009766 43.79999160766602 40.23151779174805 43.79999160766602 C 43.1180305480957 43.79999160766602 45.84359741210938 44.92284393310547 47.90614700317383 46.96169281005859 C 49.96723937988281 48.99910354614258 51.10232925415039 51.69074249267578 51.10232925415039 54.54076385498047 C 51.10232925415039 57.43371200561523 50.07449722290039 59.97826385498047 48.12997055053711 61.89932250976562 L 47.6721076965332 62.35165405273438 L 48.22360992431641 62.68345260620117 C 50.7309684753418 64.19196319580078 52.84056854248047 66.28636169433594 54.32435989379883 68.740234375 C 55.86309814453125 71.28496551513672 56.67642974853516 74.14885711669922 56.67642974853516 77.02229309082031 L 56.67642974853516 79.88759613037109 C 56.67642974853516 81.14761352539062 55.55569839477539 82.25289154052734 54.27806854248047 82.25289154052734 Z M 40.23151779174805 65.28153228759766 C 33.68592834472656 65.28153228759766 28.36070823669434 70.54841613769531 28.36070823669434 77.02229309082031 L 28.36070823669434 77.52229309082031 L 28.86070823669434 77.52229309082031 L 51.60232925415039 77.52229309082031 L 52.10232925415039 77.52229309082031 L 52.10232925415039 77.02229309082031 C 52.10232925415039 70.54841613769531 46.77710723876953 65.28153228759766 40.23151779174805 65.28153228759766 Z M 40.23151779174805 48.53058242797852 C 36.82547760009766 48.53058242797852 34.15741729736328 51.17057418823242 34.15741729736328 54.54076385498047 C 34.15741729736328 57.91096496582031 36.82547760009766 60.55095291137695 40.23151779174805 60.55095291137695 C 43.63755798339844 60.55095291137695 46.30561828613281 57.91096496582031 46.30561828613281 54.54076385498047 C 46.30561828613281 51.17057418823242 43.63755798339844 48.53058242797852 40.23151779174805 48.53058242797852 Z" stroke="none"/>
        <path d="M 40.23151779174805 44.29998779296875 C 37.47747039794922 44.29998779296875 34.87673950195312 45.37155151367188 32.90839767456055 47.31727600097656 C 30.94306945800781 49.26003265380859 29.86071014404297 51.82538604736328 29.86071014404297 54.540771484375 C 29.86071014404297 57.29707336425781 30.83715057373047 59.71861267089844 32.68447875976562 61.54361724853516 L 33.64907836914062 62.4965705871582 L 32.45369720458984 63.13660049438477 C 29.94125747680664 64.48181915283203 27.83671951293945 66.45419311523438 26.36758804321289 68.84048461914062 C 24.86056900024414 71.28831481933594 24.06399917602539 74.11753845214844 24.06399917602539 77.02229309082031 L 24.06399917602539 79.88760375976562 C 24.06399917602539 80.88125610351562 24.95108032226562 81.75289154052734 25.96236038208008 81.75289154052734 L 54.27806854248047 81.75289154052734 C 55.28934860229492 81.75289154052734 56.17642974853516 80.88125610351562 56.17642974853516 79.88760375976562 L 56.17642974853516 77.02229309082031 C 56.17642974853516 74.24005889892578 55.38803863525391 71.46563720703125 53.89649963378906 68.99894714355469 C 52.45460891723633 66.61436462402344 50.40381622314453 64.57865142822266 47.96583938598633 63.11188125610352 L 46.86285018920898 62.44828796386719 L 47.77856826782227 61.54361724853516 C 49.62588882446289 59.71859741210938 50.60232925415039 57.29705810546875 50.60232925415039 54.540771484375 C 50.60232925415039 51.82538604736328 49.51996612548828 49.26003265380859 47.55463790893555 47.31727600097656 C 45.58629989624023 45.37155151367188 42.98556900024414 44.29998779296875 40.23151779174805 44.29998779296875 M 40.23151779174805 61.05094909667969 C 36.54510879516602 61.05094909667969 33.65741729736328 58.19133758544922 33.65741729736328 54.540771484375 C 33.65741729736328 50.89019775390625 36.54510879516602 48.03058624267578 40.23151779174805 48.03058624267578 C 43.91793060302734 48.03058624267578 46.80561828613281 50.89019775390625 46.80561828613281 54.540771484375 C 46.80561828613281 58.19133758544922 43.91793060302734 61.05094909667969 40.23151779174805 61.05094909667969 M 52.60232925415039 78.02229309082031 L 27.86071014404297 78.02229309082031 L 27.86071014404297 77.02229309082031 C 27.86071014404297 70.272705078125 33.41022872924805 64.78152465820312 40.23151779174805 64.78152465820312 C 47.05280685424805 64.78152465820312 52.60232925415039 70.272705078125 52.60232925415039 77.02229309082031 L 52.60232925415039 78.02229309082031 M 40.23151779174805 43.29998779296875 C 46.47344970703125 43.29998779296875 51.60232925415039 48.36934661865234 51.60232925415039 54.540771484375 C 51.60232925415039 57.62645721435547 50.4892692565918 60.27134704589844 48.48136901855469 62.25500869750977 C 53.6102294921875 65.34071350097656 57.17642974853516 70.85089111328125 57.17642974853516 77.02229309082031 L 57.17642974853516 79.88760375976562 C 57.17642974853516 81.43043518066406 55.83854675292969 82.75289154052734 54.27806854248047 82.75289154052734 L 25.96236038208008 82.75289154052734 C 24.4018669128418 82.75289154052734 23.06399917602539 81.43043518066406 23.06399917602539 79.88760375976562 L 23.06399917602539 77.02229309082031 C 23.06399917602539 70.6304931640625 26.63018798828125 65.12031555175781 31.9816780090332 62.25500869750977 C 29.97375869750977 60.27134704589844 28.86071014404297 57.62645721435547 28.86071014404297 54.540771484375 C 28.86071014404297 48.36934661865234 33.98958969116211 43.29998779296875 40.23151779174805 43.29998779296875 Z M 40.23151779174805 60.05094909667969 C 43.35248947143555 60.05094909667969 45.80561828613281 57.62645721435547 45.80561828613281 54.540771484375 C 45.80561828613281 51.45506286621094 43.35248947143555 49.03058624267578 40.23151779174805 49.03058624267578 C 37.11054992675781 49.03058624267578 34.65741729736328 51.45506286621094 34.65741729736328 54.540771484375 C 34.65741729736328 57.62645721435547 37.11054992675781 60.05094909667969 40.23151779174805 60.05094909667969 Z M 51.60232925415039 77.02229309082031 C 51.60232925415039 70.85089111328125 46.47344970703125 65.78152465820312 40.23151779174805 65.78152465820312 C 33.98958969116211 65.78152465820312 28.86071014404297 70.85089111328125 28.86071014404297 77.02229309082031 L 51.60232925415039 77.02229309082031 Z" stroke="none" fill="#cf5c49"/>
      </g>
      <g id="Path_11268" data-name="Path 11268" transform="translate(55.785 52.136)" fill="#fff">
        <path d="M 77.5440673828125 82.25289154052734 L 49.22834777832031 82.25289154052734 C 47.95071792602539 82.25289154052734 46.82999801635742 81.14761352539062 46.82999801635742 79.88759613037109 L 46.82999801635742 77.02229309082031 C 46.82999801635742 73.99610137939453 47.61554718017578 71.07388305664062 49.10171508789062 68.571533203125 C 50.56967544555664 66.09987640380859 52.7003059387207 64.06807708740234 55.26327514648438 62.69580459594727 L 55.86096572875977 62.37579345703125 L 55.37866592407227 61.89932250976562 C 53.43268585205078 59.97684478759766 52.40409469604492 57.43229293823242 52.40409469604492 54.54076385498047 C 52.40409469604492 51.69074249267578 53.5391845703125 48.99910354614258 55.60027694702148 46.96169281005859 C 57.66282653808594 44.92284393310547 60.38839721679688 43.79999160766602 63.27490615844727 43.79999160766602 C 66.16221618652344 43.79999160766602 68.88806915283203 44.92283248901367 70.9503173828125 46.96167373657227 C 73.01088714599609 48.99884414672852 74.14569854736328 51.69048309326172 74.14569854736328 54.54076385498047 C 74.14569854736328 57.43372344970703 73.11787414550781 59.97826385498047 71.17334747314453 61.89932250976562 L 70.70660400390625 62.36043167114258 L 71.27498626708984 62.68816375732422 C 73.87333679199219 64.18639373779297 76.04864501953125 66.28036499023438 77.56574249267578 68.74371337890625 C 79.12201690673828 71.27066040039062 79.94461822509766 74.13334655761719 79.94461822509766 77.02229309082031 L 79.94461822509766 79.88759613037109 C 79.94461822509766 81.14761352539062 78.82286834716797 82.25289154052734 77.5440673828125 82.25289154052734 Z M 63.27490615844727 65.28153228759766 C 56.72931671142578 65.28153228759766 51.40409469604492 70.54841613769531 51.40409469604492 77.02229309082031 L 51.40409469604492 77.52229309082031 L 51.90409469604492 77.52229309082031 L 74.64569854736328 77.52229309082031 L 75.14569854736328 77.52229309082031 L 75.14569854736328 77.02229309082031 C 75.14569854736328 70.54841613769531 69.82048797607422 65.28153228759766 63.27490615844727 65.28153228759766 Z M 63.27490615844727 48.53058242797852 C 59.86886596679688 48.53058242797852 57.20079803466797 51.17057418823242 57.20079803466797 54.54076385498047 C 57.20079803466797 57.86188507080078 59.76279449462891 60.56381225585938 62.91191482543945 60.56381225585938 C 63.03783798217773 60.56381225585938 63.16577529907227 60.55947494506836 63.29249572753906 60.55093002319336 C 66.69142150878906 60.54192733764648 69.3511962890625 57.90520477294922 69.3511962890625 54.54076385498047 C 69.3511962890625 51.17057418823242 66.68217468261719 48.53058242797852 63.27490615844727 48.53058242797852 Z" stroke="none"/>
        <path d="M 63.27489852905273 44.29998779296875 C 60.52085113525391 44.29998779296875 57.92012023925781 45.37155151367188 55.9517822265625 47.31727600097656 C 53.9864501953125 49.26003265380859 52.90409088134766 51.82538604736328 52.90409088134766 54.540771484375 C 52.90409088134766 57.29563140869141 53.88130187988281 59.71717834472656 55.73007202148438 61.54361724853516 L 56.69465637207031 62.4965705871582 L 55.49929046630859 63.13660049438477 C 53.01663970947266 64.46586608886719 50.95304870605469 66.43353271484375 49.53162384033203 68.82685852050781 C 48.09130859375 71.25198364257812 47.33000183105469 74.08590698242188 47.33000183105469 77.02229309082031 L 47.33000183105469 79.88760375976562 C 47.33000183105469 80.88125610351562 48.21707916259766 81.75289154052734 49.22834777832031 81.75289154052734 L 77.5440673828125 81.75289154052734 C 78.55651092529297 81.75289154052734 79.44461822509766 80.88125610351562 79.44461822509766 79.88760375976562 L 79.44461822509766 77.02229309082031 C 79.44461822509766 74.22599029541016 78.647705078125 71.45396423339844 77.1400146484375 69.00590515136719 C 75.66632843017578 66.61305236816406 73.55186462402344 64.57818603515625 71.02523040771484 63.12131118774414 L 69.88845825195312 62.46583938598633 L 70.82194519042969 61.54361724853516 C 72.66926574707031 59.71861267089844 73.64569854736328 57.29705810546875 73.64569854736328 54.540771484375 C 73.64569854736328 51.82511901855469 72.56362152099609 49.25975036621094 70.59878540039062 47.31723022460938 C 68.63075256347656 45.37152862548828 66.02973937988281 44.29998779296875 63.27489852905273 44.29998779296875 M 63.30999374389648 61.05086517333984 C 63.17737579345703 61.05945587158203 63.04363632202148 61.06381225585938 62.91191101074219 61.06381225585938 C 59.48709106445312 61.06381225585938 56.70079803466797 58.13758850097656 56.70079803466797 54.540771484375 C 56.70079803466797 50.89019775390625 59.58849334716797 48.03058624267578 63.27489852905273 48.03058624267578 C 66.96253967285156 48.03058624267578 69.8511962890625 50.89019775390625 69.8511962890625 54.540771484375 C 69.8511962890625 58.17975616455078 66.98085021972656 61.03279113769531 63.30999374389648 61.05086517333984 M 75.64569854736328 78.02229309082031 L 50.90409088134766 78.02229309082031 L 50.90409088134766 77.02229309082031 C 50.90409088134766 70.272705078125 56.45361328125 64.78152465820312 63.27489852905273 64.78152465820312 C 70.09617614746094 64.78152465820312 75.64569854736328 70.272705078125 75.64569854736328 77.02229309082031 L 75.64569854736328 78.02229309082031 M 63.27489852905273 43.29998779296875 C 69.51902770996094 43.29998779296875 74.64569854736328 48.36934661865234 74.64569854736328 54.540771484375 C 74.64569854736328 57.62645721435547 73.53265380859375 60.27134704589844 71.52474975585938 62.25500869750977 C 76.87622833251953 65.34071350097656 80.44461822509766 70.85089111328125 80.44461822509766 77.02229309082031 L 80.44461822509766 79.88760375976562 C 80.44461822509766 81.43043518066406 79.10675048828125 82.75289154052734 77.5440673828125 82.75289154052734 L 49.22834777832031 82.75289154052734 C 47.66786193847656 82.75289154052734 46.33000183105469 81.43043518066406 46.33000183105469 79.88760375976562 L 46.33000183105469 77.02229309082031 C 46.33000183105469 70.6304931640625 49.67578125 65.12031555175781 55.02726745605469 62.25500869750977 C 53.01936340332031 60.27134704589844 51.90409088134766 57.62645721435547 51.90409088134766 54.540771484375 C 51.90409088134766 48.36934661865234 57.03296661376953 43.29998779296875 63.27489852905273 43.29998779296875 Z M 62.91191101074219 60.06380462646484 C 63.03168106079102 60.06380462646484 63.15298843383789 60.05956268310547 63.27489852905273 60.05094909667969 C 66.3980712890625 60.05094909667969 68.8511962890625 57.62645721435547 68.8511962890625 54.540771484375 C 68.8511962890625 51.45506286621094 66.3980712890625 49.03058624267578 63.27489852905273 49.03058624267578 C 60.1539306640625 49.03058624267578 57.70079803466797 51.45506286621094 57.70079803466797 54.540771484375 C 57.70079803466797 57.50592803955078 59.96560668945312 60.06380462646484 62.91191101074219 60.06380462646484 Z M 74.64569854736328 77.02229309082031 C 74.64569854736328 70.85089111328125 69.51902770996094 65.78152465820312 63.27489852905273 65.78152465820312 C 57.03296661376953 65.78152465820312 51.90409088134766 70.85089111328125 51.90409088134766 77.02229309082031 L 74.64569854736328 77.02229309082031 Z" stroke="none" fill="#cf5c49"/>
      </g>
    </g>
  </g>
</svg>
